<svg width="49" height="49" viewBox="0 0 49 49" fill="none" xmlns="http://www.w3.org/2000/svg">
<g clip-path="url(#clip0_202_2)">
<path d="M8.56168 13.8062L2.07568 7.32219L4.90568 4.49219L11.3897 10.9782H41.8737C42.1854 10.9782 42.4928 11.051 42.7714 11.1909C43.05 11.3308 43.292 11.5339 43.4781 11.784C43.6643 12.034 43.7894 12.3242 43.8435 12.6312C43.8976 12.9382 43.8792 13.2536 43.7897 13.5522L38.9897 29.5522C38.8662 29.9644 38.6131 30.3257 38.2679 30.5826C37.9228 30.8395 37.504 30.9782 37.0737 30.9782H12.5617V34.9782H34.5617V38.9782H10.5617C10.0313 38.9782 9.52254 38.7675 9.14747 38.3924C8.7724 38.0173 8.56168 37.5086 8.56168 36.9782V13.8062ZM12.5617 14.9782V26.9782H35.5857L39.1857 14.9782H12.5617ZM11.5617 46.9782C10.766 46.9782 10.003 46.6621 9.44036 46.0995C8.87775 45.5369 8.56168 44.7738 8.56168 43.9782C8.56168 43.1825 8.87775 42.4195 9.44036 41.8569C10.003 41.2943 10.766 40.9782 11.5617 40.9782C12.3573 40.9782 13.1204 41.2943 13.683 41.8569C14.2456 42.4195 14.5617 43.1825 14.5617 43.9782C14.5617 44.7738 14.2456 45.5369 13.683 46.0995C13.1204 46.6621 12.3573 46.9782 11.5617 46.9782ZM35.5617 46.9782C34.766 46.9782 34.003 46.6621 33.4404 46.0995C32.8778 45.5369 32.5617 44.7738 32.5617 43.9782C32.5617 43.1825 32.8778 42.4195 33.4404 41.8569C34.003 41.2943 34.766 40.9782 35.5617 40.9782C36.3573 40.9782 37.1204 41.2943 37.683 41.8569C38.2456 42.4195 38.5617 43.1825 38.5617 43.9782C38.5617 44.7738 38.2456 45.5369 37.683 46.0995C37.1204 46.6621 36.3573 46.9782 35.5617 46.9782Z" fill="black"/>
</g>
<defs>
<clipPath id="clip0_202_2">
<rect width="48" height="48" fill="white" transform="translate(0.561646 0.978516)"/>
</clipPath>
</defs>
</svg>
