<svg width="49" height="49" viewBox="0 0 49 49" fill="none" xmlns="http://www.w3.org/2000/svg">
<path d="M20.2167 8.69986C17.0341 8.69986 13.9818 9.96414 11.7314 12.2146C9.48096 14.465 8.21667 17.5173 8.21667 20.6999C8.21667 23.8825 9.48096 26.9347 11.7314 29.1851C13.9818 31.4356 17.0341 32.6999 20.2167 32.6999C23.3993 32.6999 26.4515 31.4356 28.702 29.1851C30.9524 26.9347 32.2167 23.8825 32.2167 20.6999C32.2167 17.5173 30.9524 14.465 28.702 12.2146C26.4515 9.96414 23.3993 8.69986 20.2167 8.69986ZM4.21667 20.6999C4.21704 18.1536 4.82511 15.6442 5.99035 13.3801C7.1556 11.1161 8.84436 9.16292 10.9163 7.68283C12.9882 6.20274 15.3835 5.23853 17.903 4.87032C20.4225 4.50211 22.9935 4.74055 25.4024 5.56581C27.8112 6.39107 29.9883 7.77933 31.7527 9.61519C33.5171 11.4511 34.8179 13.6815 35.5469 16.1212C36.2759 18.5609 36.4121 21.1393 35.9442 23.6423C35.4763 26.1452 34.4178 28.5003 32.8567 30.5119L43.6307 41.2859C43.995 41.6631 44.1966 42.1683 44.192 42.6927C44.1875 43.2171 43.9771 43.7187 43.6063 44.0895C43.2355 44.4603 42.7339 44.6707 42.2095 44.6752C41.6851 44.6798 41.1799 44.4782 40.8027 44.1139L30.0287 33.3399C27.6636 35.1761 24.8307 36.3118 21.8522 36.6178C18.8737 36.9239 15.8691 36.388 13.18 35.0712C10.4909 33.7544 8.22526 31.7094 6.64072 29.1688C5.05619 26.6283 4.21634 23.6941 4.21667 20.6999V20.6999Z" fill="#0D0D0D"/>
</svg>
